<mxfile host="app.diagrams.net" modified="2023-11-27T14:03:43.362Z" agent="Mozilla/5.0 (Macintosh; Intel Mac OS X 10_15_7) AppleWebKit/537.36 (KHTML, like Gecko) Chrome/119.0.0.0 Safari/537.36" etag="1bFTllzLH6d8v-C5FrPm" version="22.1.4" type="device">
  <diagram name="Page-1" id="toTXQOctY8lqpIN5eQkJ">
    <mxGraphModel dx="1553" dy="939" grid="1" gridSize="10" guides="1" tooltips="1" connect="1" arrows="1" fold="1" page="1" pageScale="1" pageWidth="1169" pageHeight="827" math="0" shadow="0">
      <root>
        <mxCell id="0" />
        <mxCell id="1" parent="0" />
        <mxCell id="9MsrRh6NDD8cImw58Ieo-32" value="" style="rounded=0;whiteSpace=wrap;html=1;fillColor=none;glass=0;shadow=0;strokeColor=#FF0000;strokeWidth=5;fillStyle=auto;fontColor=#CC0000;" parent="1" vertex="1">
          <mxGeometry x="395" y="264" width="550" height="280" as="geometry" />
        </mxCell>
        <mxCell id="9MsrRh6NDD8cImw58Ieo-7" style="edgeStyle=orthogonalEdgeStyle;rounded=0;orthogonalLoop=1;jettySize=auto;html=1;strokeWidth=2;fontFamily=Times New Roman;fontSize=18;entryX=0;entryY=0.5;entryDx=0;entryDy=0;" parent="1" source="9MsrRh6NDD8cImw58Ieo-1" target="9MsrRh6NDD8cImw58Ieo-9" edge="1">
          <mxGeometry relative="1" as="geometry">
            <mxPoint x="275" y="494" as="targetPoint" />
          </mxGeometry>
        </mxCell>
        <mxCell id="9MsrRh6NDD8cImw58Ieo-1" value="" style="html=1;verticalLabelPosition=bottom;align=center;labelBackgroundColor=#ffffff;verticalAlign=top;strokeWidth=3;strokeColor=#CC0000;shadow=0;dashed=0;shape=mxgraph.ios7.icons.microphone;fillColor=#CC0000;fillStyle=dashed;fontFamily=Times New Roman;fontSize=18;" parent="1" vertex="1">
          <mxGeometry x="155" y="454" width="40" height="80" as="geometry" />
        </mxCell>
        <mxCell id="9MsrRh6NDD8cImw58Ieo-11" style="edgeStyle=orthogonalEdgeStyle;rounded=0;orthogonalLoop=1;jettySize=auto;html=1;entryX=0;entryY=0.5;entryDx=0;entryDy=0;strokeWidth=2;fontFamily=Times New Roman;fontSize=18;" parent="1" source="9MsrRh6NDD8cImw58Ieo-9" target="9MsrRh6NDD8cImw58Ieo-10" edge="1">
          <mxGeometry relative="1" as="geometry" />
        </mxCell>
        <mxCell id="9MsrRh6NDD8cImw58Ieo-23" style="edgeStyle=orthogonalEdgeStyle;rounded=0;orthogonalLoop=1;jettySize=auto;html=1;strokeWidth=2;endArrow=none;endFill=0;startArrow=classic;startFill=1;exitX=0.5;exitY=0;exitDx=0;exitDy=0;" parent="1" source="9MsrRh6NDD8cImw58Ieo-10" edge="1">
          <mxGeometry relative="1" as="geometry">
            <mxPoint x="475" y="334" as="targetPoint" />
            <Array as="points">
              <mxPoint x="475" y="334" />
            </Array>
          </mxGeometry>
        </mxCell>
        <mxCell id="9MsrRh6NDD8cImw58Ieo-9" value="Fixed Gain Amplifier" style="whiteSpace=wrap;html=1;fontFamily=Times New Roman;fontSize=18;strokeWidth=2;" parent="1" vertex="1">
          <mxGeometry x="265" y="464" width="100" height="60" as="geometry" />
        </mxCell>
        <mxCell id="9MsrRh6NDD8cImw58Ieo-13" style="edgeStyle=orthogonalEdgeStyle;rounded=0;orthogonalLoop=1;jettySize=auto;html=1;exitX=1;exitY=0.5;exitDx=0;exitDy=0;entryX=0;entryY=0.5;entryDx=0;entryDy=0;strokeWidth=2;fontFamily=Times New Roman;fontSize=18;" parent="1" source="9MsrRh6NDD8cImw58Ieo-10" target="9MsrRh6NDD8cImw58Ieo-12" edge="1">
          <mxGeometry relative="1" as="geometry" />
        </mxCell>
        <mxCell id="9MsrRh6NDD8cImw58Ieo-10" value="Prog Gain Amplifier" style="whiteSpace=wrap;html=1;fontFamily=Times New Roman;fontSize=18;strokeWidth=2;" parent="1" vertex="1">
          <mxGeometry x="425" y="464" width="100" height="60" as="geometry" />
        </mxCell>
        <mxCell id="9MsrRh6NDD8cImw58Ieo-17" style="edgeStyle=orthogonalEdgeStyle;rounded=0;orthogonalLoop=1;jettySize=auto;html=1;exitX=1;exitY=0.5;exitDx=0;exitDy=0;strokeWidth=2;fontFamily=Times New Roman;fontSize=18;" parent="1" source="9MsrRh6NDD8cImw58Ieo-12" target="9MsrRh6NDD8cImw58Ieo-15" edge="1">
          <mxGeometry relative="1" as="geometry" />
        </mxCell>
        <mxCell id="9MsrRh6NDD8cImw58Ieo-19" style="edgeStyle=orthogonalEdgeStyle;rounded=0;orthogonalLoop=1;jettySize=auto;html=1;entryX=0.5;entryY=1;entryDx=0;entryDy=0;strokeWidth=2;" parent="1" source="9MsrRh6NDD8cImw58Ieo-12" target="9MsrRh6NDD8cImw58Ieo-18" edge="1">
          <mxGeometry relative="1" as="geometry">
            <Array as="points">
              <mxPoint x="765" y="494" />
              <mxPoint x="765" y="444" />
            </Array>
          </mxGeometry>
        </mxCell>
        <mxCell id="9MsrRh6NDD8cImw58Ieo-12" value="ADC" style="whiteSpace=wrap;html=1;fontFamily=Times New Roman;fontSize=18;strokeWidth=2;" parent="1" vertex="1">
          <mxGeometry x="585" y="464" width="100" height="60" as="geometry" />
        </mxCell>
        <mxCell id="9MsrRh6NDD8cImw58Ieo-22" style="edgeStyle=orthogonalEdgeStyle;rounded=0;orthogonalLoop=1;jettySize=auto;html=1;exitX=0.5;exitY=0;exitDx=0;exitDy=0;strokeWidth=2;endArrow=none;endFill=0;startArrow=classic;startFill=1;" parent="1" source="9MsrRh6NDD8cImw58Ieo-15" edge="1">
          <mxGeometry relative="1" as="geometry">
            <mxPoint x="875" y="334" as="targetPoint" />
          </mxGeometry>
        </mxCell>
        <mxCell id="9MsrRh6NDD8cImw58Ieo-29" style="edgeStyle=orthogonalEdgeStyle;rounded=0;orthogonalLoop=1;jettySize=auto;html=1;exitX=1;exitY=0.5;exitDx=0;exitDy=0;strokeWidth=2;entryX=0;entryY=0.5;entryDx=0;entryDy=0;entryPerimeter=0;" parent="1" source="9MsrRh6NDD8cImw58Ieo-15" target="9MsrRh6NDD8cImw58Ieo-66" edge="1">
          <mxGeometry relative="1" as="geometry">
            <mxPoint x="1015" y="494" as="targetPoint" />
          </mxGeometry>
        </mxCell>
        <mxCell id="9MsrRh6NDD8cImw58Ieo-15" value="Gain Smoother" style="whiteSpace=wrap;html=1;fontFamily=Times New Roman;fontSize=18;strokeWidth=2;" parent="1" vertex="1">
          <mxGeometry x="825" y="464" width="100" height="60" as="geometry" />
        </mxCell>
        <mxCell id="9MsrRh6NDD8cImw58Ieo-24" style="edgeStyle=orthogonalEdgeStyle;rounded=0;orthogonalLoop=1;jettySize=auto;html=1;exitX=0.5;exitY=0;exitDx=0;exitDy=0;strokeWidth=2;" parent="1" source="9MsrRh6NDD8cImw58Ieo-18" edge="1">
          <mxGeometry relative="1" as="geometry">
            <mxPoint x="765" y="334" as="targetPoint" />
          </mxGeometry>
        </mxCell>
        <mxCell id="9MsrRh6NDD8cImw58Ieo-18" value="Envelope Controller" style="whiteSpace=wrap;html=1;fontFamily=Times New Roman;fontSize=18;strokeWidth=2;" parent="1" vertex="1">
          <mxGeometry x="715" y="384" width="100" height="60" as="geometry" />
        </mxCell>
        <mxCell id="9MsrRh6NDD8cImw58Ieo-20" value="" style="endArrow=none;html=1;rounded=0;strokeWidth=2;" parent="1" edge="1">
          <mxGeometry width="50" height="50" relative="1" as="geometry">
            <mxPoint x="475" y="334" as="sourcePoint" />
            <mxPoint x="875" y="334" as="targetPoint" />
          </mxGeometry>
        </mxCell>
        <mxCell id="9MsrRh6NDD8cImw58Ieo-25" value="Gain Selection Command&lt;br&gt;4-bit" style="text;html=1;align=center;verticalAlign=middle;resizable=0;points=[];autosize=1;strokeColor=none;fillColor=none;fontFamily=Times New Roman;fontSize=18;" parent="1" vertex="1">
          <mxGeometry x="575" y="264" width="210" height="60" as="geometry" />
        </mxCell>
        <mxCell id="9MsrRh6NDD8cImw58Ieo-26" value="" style="endArrow=none;html=1;rounded=0;strokeWidth=2;" parent="1" edge="1">
          <mxGeometry width="50" height="50" relative="1" as="geometry">
            <mxPoint x="665" y="344" as="sourcePoint" />
            <mxPoint x="685" y="324" as="targetPoint" />
          </mxGeometry>
        </mxCell>
        <mxCell id="9MsrRh6NDD8cImw58Ieo-27" value="" style="endArrow=none;html=1;rounded=0;strokeWidth=2;" parent="1" edge="1">
          <mxGeometry width="50" height="50" relative="1" as="geometry">
            <mxPoint x="715" y="504" as="sourcePoint" />
            <mxPoint x="735" y="484" as="targetPoint" />
          </mxGeometry>
        </mxCell>
        <mxCell id="9MsrRh6NDD8cImw58Ieo-28" value="10-bit" style="text;html=1;align=center;verticalAlign=middle;resizable=0;points=[];autosize=1;strokeColor=none;fillColor=none;fontFamily=Times New Roman;fontSize=18;fontStyle=2" parent="1" vertex="1">
          <mxGeometry x="685" y="504" width="70" height="40" as="geometry" />
        </mxCell>
        <mxCell id="9MsrRh6NDD8cImw58Ieo-30" value="10-bit" style="text;html=1;align=center;verticalAlign=middle;resizable=0;points=[];autosize=1;strokeColor=none;fillColor=none;fontFamily=Times New Roman;fontSize=18;fontStyle=2" parent="1" vertex="1">
          <mxGeometry x="935" y="449" width="70" height="40" as="geometry" />
        </mxCell>
        <mxCell id="9MsrRh6NDD8cImw58Ieo-31" value="" style="endArrow=none;html=1;rounded=0;strokeWidth=2;" parent="1" edge="1">
          <mxGeometry width="50" height="50" relative="1" as="geometry">
            <mxPoint x="955" y="504" as="sourcePoint" />
            <mxPoint x="975" y="484" as="targetPoint" />
          </mxGeometry>
        </mxCell>
        <mxCell id="9MsrRh6NDD8cImw58Ieo-33" value="AUTOMATIC GAIN CONTROL (AGC) UNIT" style="text;html=1;align=center;verticalAlign=middle;resizable=0;points=[];autosize=1;strokeColor=none;fillColor=none;fontFamily=Times New Roman;fontSize=18;fontStyle=1;fontColor=#CC0000;" parent="1" vertex="1">
          <mxGeometry x="475" y="214" width="390" height="40" as="geometry" />
        </mxCell>
        <mxCell id="9MsrRh6NDD8cImw58Ieo-35" value="&lt;i&gt;Analog Path&lt;/i&gt;" style="text;html=1;align=center;verticalAlign=middle;resizable=0;points=[];autosize=1;strokeColor=none;fillColor=none;fontFamily=Times New Roman;fontSize=18;" parent="1" vertex="1">
          <mxGeometry x="120" y="414" width="110" height="40" as="geometry" />
        </mxCell>
        <mxCell id="9MsrRh6NDD8cImw58Ieo-66" value="" style="verticalLabelPosition=bottom;verticalAlign=top;html=1;shape=mxgraph.flowchart.summing_function;strokeWidth=2;" parent="1" vertex="1">
          <mxGeometry x="1005" y="474" width="40" height="40" as="geometry" />
        </mxCell>
        <mxCell id="9MsrRh6NDD8cImw58Ieo-67" value="(LSB) 4&#39;h0" style="text;html=1;align=center;verticalAlign=middle;resizable=0;points=[];autosize=1;strokeColor=none;fillColor=none;fontFamily=Times New Roman;fontSize=18;" parent="1" vertex="1">
          <mxGeometry x="975" y="424" width="100" height="40" as="geometry" />
        </mxCell>
        <mxCell id="9MsrRh6NDD8cImw58Ieo-71" value="" style="endArrow=none;html=1;rounded=0;strokeWidth=2;" parent="1" edge="1">
          <mxGeometry width="50" height="50" relative="1" as="geometry">
            <mxPoint x="1109" y="504" as="sourcePoint" />
            <mxPoint x="1129" y="484" as="targetPoint" />
          </mxGeometry>
        </mxCell>
        <mxCell id="9MsrRh6NDD8cImw58Ieo-74" value="Quantized &lt;br&gt;Signal" style="text;html=1;align=center;verticalAlign=middle;resizable=0;points=[];autosize=1;strokeColor=none;fillColor=none;fontFamily=Times New Roman;fontSize=18;" parent="1" vertex="1">
          <mxGeometry x="1069" y="434" width="100" height="60" as="geometry" />
        </mxCell>
        <mxCell id="9MsrRh6NDD8cImw58Ieo-85" value="" style="endArrow=classic;html=1;rounded=0;strokeWidth=2;entryX=0;entryY=0.5;entryDx=0;entryDy=0;exitX=1;exitY=0.5;exitDx=0;exitDy=0;exitPerimeter=0;" parent="1" source="9MsrRh6NDD8cImw58Ieo-66" target="7w7PCdq3hjsfF6tZsjkb-11" edge="1">
          <mxGeometry width="50" height="50" relative="1" as="geometry">
            <mxPoint x="1080" y="494" as="sourcePoint" />
            <mxPoint x="1160" y="494.12" as="targetPoint" />
          </mxGeometry>
        </mxCell>
        <mxCell id="7w7PCdq3hjsfF6tZsjkb-21" style="edgeStyle=orthogonalEdgeStyle;rounded=0;orthogonalLoop=1;jettySize=auto;html=1;exitX=1;exitY=0.5;exitDx=0;exitDy=0;entryX=0;entryY=0.5;entryDx=0;entryDy=0;strokeWidth=2;" parent="1" source="7w7PCdq3hjsfF6tZsjkb-11" target="7w7PCdq3hjsfF6tZsjkb-13" edge="1">
          <mxGeometry relative="1" as="geometry" />
        </mxCell>
        <mxCell id="7w7PCdq3hjsfF6tZsjkb-30" style="edgeStyle=orthogonalEdgeStyle;rounded=0;orthogonalLoop=1;jettySize=auto;html=1;exitX=1;exitY=0.5;exitDx=0;exitDy=0;entryX=0;entryY=0.5;entryDx=0;entryDy=0;strokeWidth=2;" parent="1" source="7w7PCdq3hjsfF6tZsjkb-11" target="7w7PCdq3hjsfF6tZsjkb-22" edge="1">
          <mxGeometry relative="1" as="geometry" />
        </mxCell>
        <mxCell id="7w7PCdq3hjsfF6tZsjkb-11" value="" style="rounded=0;whiteSpace=wrap;html=1;fillColor=none;strokeWidth=2;" parent="1" vertex="1">
          <mxGeometry x="1170" y="424" width="220" height="140" as="geometry" />
        </mxCell>
        <mxCell id="9MsrRh6NDD8cImw58Ieo-57" value="" style="endArrow=classic;startArrow=classic;html=1;rounded=0;strokeWidth=2;" parent="1" edge="1">
          <mxGeometry width="50" height="50" relative="1" as="geometry">
            <mxPoint x="1300" y="554" as="sourcePoint" />
            <mxPoint x="1330" y="524" as="targetPoint" />
          </mxGeometry>
        </mxCell>
        <mxCell id="9MsrRh6NDD8cImw58Ieo-43" value="Bandpass Filter" style="whiteSpace=wrap;html=1;fontFamily=Times New Roman;fontSize=18;strokeWidth=2;" parent="1" vertex="1">
          <mxGeometry x="1210" y="464" width="100" height="60" as="geometry" />
        </mxCell>
        <mxCell id="9MsrRh6NDD8cImw58Ieo-44" value="Bandpass Filter" style="whiteSpace=wrap;html=1;fontFamily=Times New Roman;fontSize=18;strokeWidth=2;" parent="1" vertex="1">
          <mxGeometry x="1200" y="474" width="100" height="60" as="geometry" />
        </mxCell>
        <mxCell id="9MsrRh6NDD8cImw58Ieo-45" value="Bandpass Filter" style="whiteSpace=wrap;html=1;fontFamily=Times New Roman;fontSize=18;strokeWidth=2;" parent="1" vertex="1">
          <mxGeometry x="1190" y="484" width="100" height="60" as="geometry" />
        </mxCell>
        <mxCell id="7w7PCdq3hjsfF6tZsjkb-8" value="Bandpass Filter" style="whiteSpace=wrap;html=1;fontFamily=Times New Roman;fontSize=18;strokeWidth=2;" parent="1" vertex="1">
          <mxGeometry x="1180" y="494" width="100" height="60" as="geometry" />
        </mxCell>
        <mxCell id="7w7PCdq3hjsfF6tZsjkb-9" value="16 CH" style="text;html=1;align=center;verticalAlign=middle;resizable=0;points=[];autosize=1;strokeColor=none;fillColor=none;fontFamily=Times New Roman;fontSize=18;" parent="1" vertex="1">
          <mxGeometry x="1320" y="524" width="70" height="40" as="geometry" />
        </mxCell>
        <mxCell id="7w7PCdq3hjsfF6tZsjkb-12" value="Filter Bank" style="text;html=1;align=center;verticalAlign=middle;resizable=0;points=[];autosize=1;strokeColor=none;fillColor=none;fontFamily=Times New Roman;fontSize=18;" parent="1" vertex="1">
          <mxGeometry x="1230" y="424" width="100" height="40" as="geometry" />
        </mxCell>
        <mxCell id="7w7PCdq3hjsfF6tZsjkb-13" value="" style="rounded=0;whiteSpace=wrap;html=1;fillColor=none;strokeWidth=2;" parent="1" vertex="1">
          <mxGeometry x="1450" y="324" width="220" height="140" as="geometry" />
        </mxCell>
        <mxCell id="7w7PCdq3hjsfF6tZsjkb-14" value="" style="endArrow=classic;startArrow=classic;html=1;rounded=0;strokeWidth=2;" parent="1" edge="1">
          <mxGeometry width="50" height="50" relative="1" as="geometry">
            <mxPoint x="1580" y="454" as="sourcePoint" />
            <mxPoint x="1610" y="424" as="targetPoint" />
          </mxGeometry>
        </mxCell>
        <mxCell id="7w7PCdq3hjsfF6tZsjkb-15" value="Bandpass Filter" style="whiteSpace=wrap;html=1;fontFamily=Times New Roman;fontSize=18;strokeWidth=2;" parent="1" vertex="1">
          <mxGeometry x="1490" y="364" width="100" height="60" as="geometry" />
        </mxCell>
        <mxCell id="7w7PCdq3hjsfF6tZsjkb-16" value="Bandpass Filter" style="whiteSpace=wrap;html=1;fontFamily=Times New Roman;fontSize=18;strokeWidth=2;" parent="1" vertex="1">
          <mxGeometry x="1480" y="374" width="100" height="60" as="geometry" />
        </mxCell>
        <mxCell id="7w7PCdq3hjsfF6tZsjkb-17" value="Bandpass Filter" style="whiteSpace=wrap;html=1;fontFamily=Times New Roman;fontSize=18;strokeWidth=2;" parent="1" vertex="1">
          <mxGeometry x="1470" y="384" width="100" height="60" as="geometry" />
        </mxCell>
        <mxCell id="7w7PCdq3hjsfF6tZsjkb-18" value="Divisive Norm" style="whiteSpace=wrap;html=1;fontFamily=Times New Roman;fontSize=18;strokeWidth=2;" parent="1" vertex="1">
          <mxGeometry x="1460" y="394" width="100" height="60" as="geometry" />
        </mxCell>
        <mxCell id="7w7PCdq3hjsfF6tZsjkb-19" value="16 CH" style="text;html=1;align=center;verticalAlign=middle;resizable=0;points=[];autosize=1;strokeColor=none;fillColor=none;fontFamily=Times New Roman;fontSize=18;" parent="1" vertex="1">
          <mxGeometry x="1600" y="424" width="70" height="40" as="geometry" />
        </mxCell>
        <mxCell id="7w7PCdq3hjsfF6tZsjkb-20" value="Divisive Normalization" style="text;html=1;align=center;verticalAlign=middle;resizable=0;points=[];autosize=1;strokeColor=none;fillColor=none;fontFamily=Times New Roman;fontSize=18;" parent="1" vertex="1">
          <mxGeometry x="1465" y="324" width="190" height="40" as="geometry" />
        </mxCell>
        <mxCell id="7w7PCdq3hjsfF6tZsjkb-22" value="" style="rounded=0;whiteSpace=wrap;html=1;fillColor=none;strokeWidth=2;" parent="1" vertex="1">
          <mxGeometry x="1450" y="524" width="220" height="140" as="geometry" />
        </mxCell>
        <mxCell id="7w7PCdq3hjsfF6tZsjkb-23" value="" style="endArrow=classic;startArrow=classic;html=1;rounded=0;strokeWidth=2;" parent="1" edge="1">
          <mxGeometry width="50" height="50" relative="1" as="geometry">
            <mxPoint x="1580" y="654" as="sourcePoint" />
            <mxPoint x="1610" y="624" as="targetPoint" />
          </mxGeometry>
        </mxCell>
        <mxCell id="7w7PCdq3hjsfF6tZsjkb-24" value="Bandpass Filter" style="whiteSpace=wrap;html=1;fontFamily=Times New Roman;fontSize=18;strokeWidth=2;" parent="1" vertex="1">
          <mxGeometry x="1490" y="564" width="100" height="60" as="geometry" />
        </mxCell>
        <mxCell id="7w7PCdq3hjsfF6tZsjkb-25" value="Bandpass Filter" style="whiteSpace=wrap;html=1;fontFamily=Times New Roman;fontSize=18;strokeWidth=2;" parent="1" vertex="1">
          <mxGeometry x="1480" y="574" width="100" height="60" as="geometry" />
        </mxCell>
        <mxCell id="7w7PCdq3hjsfF6tZsjkb-26" value="Bandpass Filter" style="whiteSpace=wrap;html=1;fontFamily=Times New Roman;fontSize=18;strokeWidth=2;" parent="1" vertex="1">
          <mxGeometry x="1470" y="584" width="100" height="60" as="geometry" />
        </mxCell>
        <mxCell id="7w7PCdq3hjsfF6tZsjkb-27" value="Spike Gen" style="whiteSpace=wrap;html=1;fontFamily=Times New Roman;fontSize=18;strokeWidth=2;" parent="1" vertex="1">
          <mxGeometry x="1460" y="594" width="100" height="60" as="geometry" />
        </mxCell>
        <mxCell id="7w7PCdq3hjsfF6tZsjkb-28" value="16 CH" style="text;html=1;align=center;verticalAlign=middle;resizable=0;points=[];autosize=1;strokeColor=none;fillColor=none;fontFamily=Times New Roman;fontSize=18;" parent="1" vertex="1">
          <mxGeometry x="1600" y="624" width="70" height="40" as="geometry" />
        </mxCell>
        <mxCell id="7w7PCdq3hjsfF6tZsjkb-29" value="IAF (Fixed Threshold)" style="text;html=1;align=center;verticalAlign=middle;resizable=0;points=[];autosize=1;strokeColor=none;fillColor=none;fontFamily=Times New Roman;fontSize=18;" parent="1" vertex="1">
          <mxGeometry x="1465" y="524" width="190" height="40" as="geometry" />
        </mxCell>
        <mxCell id="7w7PCdq3hjsfF6tZsjkb-38" style="edgeStyle=orthogonalEdgeStyle;rounded=0;orthogonalLoop=1;jettySize=auto;html=1;exitX=1;exitY=0.5;exitDx=0;exitDy=-5;exitPerimeter=0;strokeWidth=2;entryX=0;entryY=0.5;entryDx=0;entryDy=0;" parent="1" source="7w7PCdq3hjsfF6tZsjkb-34" target="2wzVH3fkBpW3y58YIU7X-1" edge="1">
          <mxGeometry relative="1" as="geometry">
            <mxPoint x="1870" y="494" as="targetPoint" />
          </mxGeometry>
        </mxCell>
        <mxCell id="7w7PCdq3hjsfF6tZsjkb-34" value="Mux" style="shadow=0;dashed=0;align=center;html=1;strokeWidth=2;shape=mxgraph.electrical.abstract.mux2;whiteSpace=wrap;fontFamily=Times New Roman;fontSize=18;" parent="1" vertex="1">
          <mxGeometry x="1720" y="439" width="80" height="120" as="geometry" />
        </mxCell>
        <mxCell id="7w7PCdq3hjsfF6tZsjkb-35" value="Select &lt;br&gt;Output" style="text;html=1;align=center;verticalAlign=middle;resizable=0;points=[];autosize=1;strokeColor=none;fillColor=none;fontFamily=Times New Roman;fontSize=18;" parent="1" vertex="1">
          <mxGeometry x="1735" y="550" width="70" height="60" as="geometry" />
        </mxCell>
        <mxCell id="7w7PCdq3hjsfF6tZsjkb-36" style="edgeStyle=orthogonalEdgeStyle;rounded=0;orthogonalLoop=1;jettySize=auto;html=1;exitX=1;exitY=0.5;exitDx=0;exitDy=0;entryX=0;entryY=0.21666666666666667;entryDx=0;entryDy=3;entryPerimeter=0;strokeWidth=2;" parent="1" source="7w7PCdq3hjsfF6tZsjkb-13" target="7w7PCdq3hjsfF6tZsjkb-34" edge="1">
          <mxGeometry relative="1" as="geometry" />
        </mxCell>
        <mxCell id="7w7PCdq3hjsfF6tZsjkb-37" style="edgeStyle=orthogonalEdgeStyle;rounded=0;orthogonalLoop=1;jettySize=auto;html=1;entryX=0;entryY=0.65;entryDx=0;entryDy=3;entryPerimeter=0;strokeWidth=2;" parent="1" source="7w7PCdq3hjsfF6tZsjkb-22" target="7w7PCdq3hjsfF6tZsjkb-34" edge="1">
          <mxGeometry relative="1" as="geometry" />
        </mxCell>
        <mxCell id="7w7PCdq3hjsfF6tZsjkb-45" value="Spike &lt;br&gt;Train" style="text;html=1;align=center;verticalAlign=middle;resizable=0;points=[];autosize=1;strokeColor=none;fillColor=none;fontFamily=Times New Roman;fontSize=18;" parent="1" vertex="1">
          <mxGeometry x="1810" y="434" width="60" height="60" as="geometry" />
        </mxCell>
        <mxCell id="7w7PCdq3hjsfF6tZsjkb-57" value="14-bit stream&lt;br&gt;@50 kHz" style="text;html=1;align=center;verticalAlign=middle;resizable=0;points=[];autosize=1;strokeColor=none;fillColor=none;fontFamily=Times New Roman;fontSize=18;fontStyle=2" parent="1" vertex="1">
          <mxGeometry x="1050" y="504" width="120" height="60" as="geometry" />
        </mxCell>
        <mxCell id="2wzVH3fkBpW3y58YIU7X-11" style="edgeStyle=orthogonalEdgeStyle;rounded=0;orthogonalLoop=1;jettySize=auto;html=1;exitX=1;exitY=0.5;exitDx=0;exitDy=0;entryX=0;entryY=0.5;entryDx=0;entryDy=0;strokeWidth=2;" parent="1" source="2wzVH3fkBpW3y58YIU7X-1" target="2wzVH3fkBpW3y58YIU7X-9" edge="1">
          <mxGeometry relative="1" as="geometry" />
        </mxCell>
        <mxCell id="2wzVH3fkBpW3y58YIU7X-1" value="" style="rounded=0;whiteSpace=wrap;html=1;fillColor=none;strokeWidth=2;" parent="1" vertex="1">
          <mxGeometry x="1890" y="424" width="220" height="140" as="geometry" />
        </mxCell>
        <mxCell id="2wzVH3fkBpW3y58YIU7X-2" value="" style="endArrow=classic;startArrow=classic;html=1;rounded=0;strokeWidth=2;" parent="1" edge="1">
          <mxGeometry width="50" height="50" relative="1" as="geometry">
            <mxPoint x="2020" y="554" as="sourcePoint" />
            <mxPoint x="2050" y="524" as="targetPoint" />
          </mxGeometry>
        </mxCell>
        <mxCell id="2wzVH3fkBpW3y58YIU7X-3" value="Bandpass Filter" style="whiteSpace=wrap;html=1;fontFamily=Times New Roman;fontSize=18;strokeWidth=2;" parent="1" vertex="1">
          <mxGeometry x="1930" y="464" width="100" height="60" as="geometry" />
        </mxCell>
        <mxCell id="2wzVH3fkBpW3y58YIU7X-4" value="Bandpass Filter" style="whiteSpace=wrap;html=1;fontFamily=Times New Roman;fontSize=18;strokeWidth=2;" parent="1" vertex="1">
          <mxGeometry x="1920" y="474" width="100" height="60" as="geometry" />
        </mxCell>
        <mxCell id="2wzVH3fkBpW3y58YIU7X-5" value="Bandpass Filter" style="whiteSpace=wrap;html=1;fontFamily=Times New Roman;fontSize=18;strokeWidth=2;" parent="1" vertex="1">
          <mxGeometry x="1910" y="484" width="100" height="60" as="geometry" />
        </mxCell>
        <mxCell id="2wzVH3fkBpW3y58YIU7X-6" value="4-bit Input Registers" style="whiteSpace=wrap;html=1;fontFamily=Times New Roman;fontSize=18;strokeWidth=2;" parent="1" vertex="1">
          <mxGeometry x="1900" y="494" width="100" height="60" as="geometry" />
        </mxCell>
        <mxCell id="2wzVH3fkBpW3y58YIU7X-7" value="16 CH" style="text;html=1;align=center;verticalAlign=middle;resizable=0;points=[];autosize=1;strokeColor=none;fillColor=none;fontFamily=Times New Roman;fontSize=18;" parent="1" vertex="1">
          <mxGeometry x="2040" y="524" width="70" height="40" as="geometry" />
        </mxCell>
        <mxCell id="2wzVH3fkBpW3y58YIU7X-8" value="Raster" style="text;html=1;align=center;verticalAlign=middle;resizable=0;points=[];autosize=1;strokeColor=none;fillColor=none;fontFamily=Times New Roman;fontSize=18;" parent="1" vertex="1">
          <mxGeometry x="1965" y="424" width="70" height="40" as="geometry" />
        </mxCell>
        <mxCell id="2wzVH3fkBpW3y58YIU7X-9" value="Xylo SNN Core" style="whiteSpace=wrap;html=1;fontFamily=Times New Roman;fontSize=18;strokeWidth=2;fillColor=#f5f5f5;fontColor=#333333;strokeColor=#666666;" parent="1" vertex="1">
          <mxGeometry x="2210" y="444" width="100" height="100" as="geometry" />
        </mxCell>
        <mxCell id="2wzVH3fkBpW3y58YIU7X-12" value="Spike &lt;br&gt;Train" style="text;html=1;align=center;verticalAlign=middle;resizable=0;points=[];autosize=1;strokeColor=none;fillColor=none;fontFamily=Times New Roman;fontSize=18;" parent="1" vertex="1">
          <mxGeometry x="2130" y="434" width="60" height="60" as="geometry" />
        </mxCell>
        <mxCell id="2wzVH3fkBpW3y58YIU7X-13" value="1-bit&lt;br&gt;@ 50 kHz" style="text;html=1;align=center;verticalAlign=middle;resizable=0;points=[];autosize=1;strokeColor=none;fillColor=none;fontFamily=Times New Roman;fontSize=18;fontStyle=2" parent="1" vertex="1">
          <mxGeometry x="1790" y="494" width="100" height="60" as="geometry" />
        </mxCell>
        <mxCell id="2wzVH3fkBpW3y58YIU7X-14" value="4-bit&lt;br&gt;@ 1 kHz" style="text;html=1;align=center;verticalAlign=middle;resizable=0;points=[];autosize=1;strokeColor=none;fillColor=none;fontFamily=Times New Roman;fontSize=18;fontStyle=2" parent="1" vertex="1">
          <mxGeometry x="2115" y="494" width="90" height="60" as="geometry" />
        </mxCell>
        <mxCell id="2wzVH3fkBpW3y58YIU7X-17" value="50 MHz/50k" style="text;html=1;align=center;verticalAlign=middle;resizable=0;points=[];autosize=1;strokeColor=none;fillColor=none;fontFamily=Times New Roman;fontSize=18;fontStyle=2" parent="1" vertex="1">
          <mxGeometry x="2205" y="400" width="110" height="40" as="geometry" />
        </mxCell>
      </root>
    </mxGraphModel>
  </diagram>
</mxfile>
